<svg data-v-423bf9ae="" xmlns="http://www.w3.org/2000/svg" viewBox="0 0 464 90" class="iconLeft"><!----><!----><!----><g data-v-423bf9ae="" id="b3f656cd-208e-43f7-9d07-7724a26fef89" fill="white" transform="matrix(5.830903811703725,0,0,5.830903811703725,128.0225619975892,2.3469397142517323)"><path d="M5.24 12.46Q0.59 12.46 0.59 7.49L0.59 7.49Q0.59 5.00 1.81 3.76Q3.02 2.52 5.24 2.52L5.24 2.52Q6.45 2.52 7.43 2.93Q8.40 3.35 8.97 4.19Q9.53 5.04 9.53 6.26L9.53 6.26L7.45 6.26Q7.45 5.32 6.85 4.78Q6.24 4.24 5.28 4.24L5.28 4.24Q3.96 4.24 3.32 5.03Q2.67 5.81 2.67 7.28L2.67 7.28L2.67 7.70Q2.67 10.74 5.28 10.74L5.28 10.74Q6.30 10.74 6.91 10.21Q7.52 9.67 7.52 8.74L7.52 8.74L9.53 8.74Q9.53 9.97 8.97 10.80Q8.41 11.63 7.45 12.05Q6.48 12.46 5.24 12.46L5.24 12.46ZM12.80 12.46Q11.94 12.46 11.23 12.01Q10.51 11.56 10.51 10.39L10.51 10.39Q10.51 8.97 11.68 8.38Q12.84 7.78 14.97 7.78L14.97 7.78L14.97 7.27Q14.97 6.78 14.75 6.51Q14.53 6.24 13.93 6.24L13.93 6.24Q13.29 6.24 13.01 6.44Q12.74 6.64 12.74 6.90L12.74 6.90L12.74 7.11L10.89 7.11Q10.88 7.03 10.88 6.80L10.88 6.80Q10.88 5.88 11.70 5.32Q12.52 4.76 13.87 4.76L13.87 4.76Q15.39 4.76 16.14 5.38Q16.88 5.99 16.88 7.15L16.88 7.15L16.88 10.40Q16.88 10.65 17.02 10.77Q17.16 10.89 17.37 10.89L17.37 10.89L17.77 10.89L17.77 12.24Q17.32 12.46 16.66 12.46L16.66 12.46Q16.09 12.46 15.70 12.21Q15.32 11.96 15.18 11.49L15.18 11.49L15.09 11.49Q14.69 11.97 14.16 12.21Q13.64 12.46 12.80 12.46L12.80 12.46ZM13.40 10.95Q14.21 10.95 14.59 10.49Q14.97 10.04 14.97 9.28L14.97 9.28L14.97 9.06Q12.46 9.06 12.46 10.18L12.46 10.18Q12.46 10.53 12.69 10.74Q12.92 10.95 13.40 10.95L13.40 10.95ZM20.86 12.46Q19.82 12.46 19.38 11.90Q18.93 11.34 18.93 10.49L18.93 10.49L18.93 6.50L18.05 6.50L18.05 4.93L18.97 4.93L19.29 2.86L20.85 2.86L20.85 4.93L22.12 4.93L22.12 6.50L20.85 6.50L20.85 10.29Q20.85 10.89 21.45 10.89L21.45 10.89L22.12 10.89L22.12 12.24Q21.88 12.32 21.52 12.39Q21.17 12.46 20.86 12.46L20.86 12.46ZM23.49 12.29L23.49 2.69L28.99 2.69Q29.75 2.69 30.37 2.99Q30.98 3.29 31.33 3.83Q31.68 4.37 31.68 5.07L31.68 5.07Q31.68 5.87 31.24 6.45Q30.80 7.03 30.11 7.25L30.11 7.25L30.11 7.31Q30.93 7.46 31.44 8.10Q31.95 8.74 31.95 9.60L31.95 9.60Q31.95 10.91 31.11 11.60Q30.28 12.29 28.99 12.29L28.99 12.29L23.49 12.29ZM25.54 6.52L28.42 6.52Q28.98 6.52 29.29 6.24Q29.60 5.95 29.60 5.50L29.60 5.50Q29.60 4.97 29.31 4.69Q29.02 4.41 28.52 4.41L28.52 4.41L25.54 4.41L25.54 6.52ZM25.54 10.57L28.66 10.57Q29.19 10.57 29.53 10.26Q29.86 9.95 29.86 9.38L29.86 9.38Q29.86 8.86 29.53 8.54Q29.19 8.22 28.55 8.22L28.55 8.22L25.54 8.22L25.54 10.57ZM36.93 12.46Q35.04 12.46 34.12 11.52Q33.19 10.58 33.19 8.61L33.19 8.61Q33.19 6.64 34.12 5.70Q35.04 4.76 36.93 4.76L36.93 4.76Q38.82 4.76 39.75 5.70Q40.68 6.64 40.68 8.61L40.68 8.61Q40.68 10.58 39.75 11.52Q38.82 12.46 36.93 12.46L36.93 12.46ZM36.93 10.89Q37.87 10.89 38.29 10.35Q38.71 9.81 38.71 8.72L38.71 8.72L38.71 8.50Q38.71 7.41 38.29 6.87Q37.87 6.33 36.93 6.33L36.93 6.33Q35.99 6.33 35.58 6.87Q35.17 7.41 35.17 8.50L35.17 8.50L35.17 8.72Q35.17 9.81 35.58 10.35Q35.99 10.89 36.93 10.89L36.93 10.89ZM45.49 12.46Q43.60 12.46 42.67 11.52Q41.75 10.58 41.75 8.61L41.75 8.61Q41.75 6.64 42.67 5.70Q43.60 4.76 45.49 4.76L45.49 4.76Q47.38 4.76 48.31 5.70Q49.24 6.64 49.24 8.61L49.24 8.61Q49.24 10.58 48.31 11.52Q47.38 12.46 45.49 12.46L45.49 12.46ZM45.49 10.89Q46.42 10.89 46.84 10.35Q47.26 9.81 47.26 8.72L47.26 8.72L47.26 8.50Q47.26 7.41 46.84 6.87Q46.42 6.33 45.49 6.33L45.49 6.33Q44.55 6.33 44.13 6.87Q43.72 7.41 43.72 8.50L43.72 8.50L43.72 8.72Q43.72 9.81 44.13 10.35Q44.55 10.89 45.49 10.89L45.49 10.89ZM50.76 12.29L50.76 2.17L52.68 2.17L52.68 7.85L55.12 4.93L57.33 4.93L54.89 7.76L57.47 12.29L55.27 12.29L53.66 9.17L52.68 10.12L52.68 12.29L50.76 12.29Z"></path></g><!----><g data-v-423bf9ae="" id="9be1a87f-983f-41f4-83e9-f9945cd6765e" transform="matrix(8.33870695393248,0,0,8.33870695393248,0.27531165126928414,1.000292315490512)" stroke="none" fill="white"><path d="M12.793 10.181l-.807-.794c-.964-.794-.847-1.927-.859-2.044-.013-.116-.013-.585.026-.741s-.013-.326-.013-.326c.287-1.172 1.211-.847 1.211-.847.377.039.391-.325.391-.325.26-.13.195-.403.195-.403l-.457-.482c-.182-.481-.702-.599-.702-.599.077-.481-.17-.781-.17-.781-.039.143-.585.719-.625.729-.638.156-.43.261-.833.547s-1.263.638-1.64.43c-.377-.209-3.514-.482-4.867-.482-.401 0-.714.083-.956.199-.222-.17-.508-.537-.719-1.036-.311-.735-.355-1.473-.116-1.974.128-.27.274-.423.435-.455.239-.047.535.161.62.238a.395.395 0 00.536-.581C3.38.396 2.812-.108 2.139.021c-.422.081-.759.381-1.001.892-.339.712-.302 1.667.102 2.621.182.43.472.914.827 1.24-.093.13-.13.226-.13.226-.117.273-.442.885-.325 1.445.117.56-.234.82-.299.885-.066.066-.743.469-.743.469L.01 9.778c-.091.378.417.599.417.599.182-.025.195-.624.195-.624l.443-1.043 1.666-.611s0 .703-.026.833-.091.351-.091.351c.065.455 1.185 1.51 1.185 1.51h.846v-.273c-.065-.3-.495-.156-.495-.156l-.625-.95c.664-.521.937-1.393.937-1.393.312.26 1.809-.222 1.809-.222l.899.091-.26 2.095c-.078.508.039.69.039.69h.403c.287 0 .482.039.482-.261 0-.299-.403-.247-.403-.247l.988-1.952c.938-.573 1.536.26 1.536.26l.053.3c.364.533 2.369 1.9 2.369 1.9h.989v-.3c-.17-.312-.573-.194-.573-.194z"></path></g><!----></svg>